<?xml version="1.0" encoding="utf-8"?>
<!-- Generator: Adobe Illustrator 18.1.1, SVG Export Plug-In . SVG Version: 6.00 Build 0)  -->
<!DOCTYPE svg PUBLIC "-//W3C//DTD SVG 1.1//EN" "http://www.w3.org/Graphics/SVG/1.1/DTD/svg11.dtd">
<svg version="1.1" id="Layer_1" xmlns="http://www.w3.org/2000/svg" xmlns:xlink="http://www.w3.org/1999/xlink" x="0px" y="0px"
	 viewBox="-213.1 10.5 1015.1 792" enable-background="new -213.1 10.5 1015.1 792" xml:space="preserve">
<path d="M306.2,465.8c92.7,0,167.8,75.2,167.8,167.8s-75.2,167.8-167.8,167.8s-167.8-75.2-167.8-167.8
	C138.4,541,213.5,465.8,306.2,465.8L306.2,465.8z M219.4,528.2l34.2,51l19.8,13.3L242.3,513l-0.3,0.2c-0.5,0.2-1-0.1-1.1-0.5
	l-2.2-5.5c-7.8,4.2-15.2,9-22.1,14.6l3.4,5c0.2,0.4,0.2,1-0.2,1.2L219.4,528.2L219.4,528.2z M243,504.9l2.3,5.9
	c0.2,0.5-0.1,1-0.5,1.1l-0.3,0.2l32.3,82.8l18.3,12.2l4.3-21.6l-35.6-81.4l-0.3,0.2c-0.4,0.2-1,0-1.1-0.5l-2.6-5.8
	C254,499.8,248.4,502.2,243,504.9L243,504.9z M297.4,608.6l2.1,1.4l5.4-12.2l-3.7-8.3L297.4,608.6L297.4,608.6z M301.6,611.3
	l2.2,1.4c-3.9,0.5-7.6,2-10.6,4.3l0.5-2.6l-10.7-4.2l4.2,10.7l2.6-0.5c-2.3,3-3.9,6.6-4.3,10.6l-1.4-2.2l-10.6,4.6l10.6,4.6l1.4-2.2
	c0.5,3.9,2,7.6,4.3,10.6l-2.6-0.5l-4.2,10.7l10.7-4.2l-0.5-2.6c3,2.3,6.6,3.9,10.6,4.3l-2.2,1.4l4.6,10.6l4.6-10.6l-2.2-1.4
	c3.9-0.5,7.6-2,10.6-4.4l-0.5,2.6l10.7,4.2l-4.2-10.7l-2.6,0.5c2.3-3,3.9-6.6,4.3-10.6l1.4,2.2l10.6-4.6l-10.6-4.6L327,631
	c-0.5-3.9-2-7.6-4.4-10.6l2.6,0.5l4.2-10.7l-10.7,4.2l0.5,2.6c-3-2.3-6.6-3.9-10.6-4.3l2.2-1.4l-4.6-10.6L301.6,611.3L301.6,611.3z
	 M282.5,626.9l-1.4-2.1l-19.2,3.8l8.3,3.7L282.5,626.9L282.5,626.9z M279.7,622.6l-12.2-18.3l-82.8-32.3l-0.2,0.3
	c-0.2,0.5-0.7,0.6-1.1,0.5l-5.9-2.3c-2.6,5.4-5,11-7,16.8l5.8,2.6c0.4,0.2,0.6,0.7,0.5,1.1l-0.2,0.3l81.4,35.6L279.7,622.6
	L279.7,622.6z M179.7,566l5.5,2.2c0.5,0.2,0.6,0.7,0.5,1.1l-0.2,0.3l79.5,31.1L251.7,581l-51-34.2l-0.2,0.3
	c-0.2,0.4-0.8,0.5-1.2,0.2l-5-3.4C188.7,550.8,183.8,558.2,179.7,566L179.7,566z M197.5,540.2l4.6,3.1c0.4,0.2,0.5,0.8,0.2,1.2
	l-0.2,0.3l46.1,30.9l-30.9-46.2l-0.3,0.2c-0.4,0.2-1,0.2-1.2-0.2l-3.1-4.6c-2.7,2.3-5.4,4.8-7.9,7.4
	C202.3,534.8,199.8,537.4,197.5,540.2L197.5,540.2z M257.1,584.5l11.9,17.8l9.7,3.8l-3.8-9.7L257.1,584.5L257.1,584.5z M271.4,605.9
	l10.9,16.2l2.5-0.5l-4.9-12.5L271.4,605.9L271.4,605.9z M283.7,624.3l1,1.6l1.4-0.6l-0.6-1.4L283.7,624.3L283.7,624.3z M278.5,598.8
	l3.3,8.5l12.5,4.9l0.5-2.5L278.5,598.8L278.5,598.8z M296.5,613.1l1.4,0.6l0.6-1.4l-1.6-1L296.5,613.1L296.5,613.1z M170.2,620.4
	l60.3,11.9l23.4-4.6l-78.2-34.2l-0.2,0.3c-0.2,0.4-0.7,0.6-1.1,0.5L169,592c-2.6,8.3-4.3,17-5.3,25.9l6,1.2c0.5,0.1,0.8,0.6,0.7,1
	L170.2,620.4L170.2,620.4z M284.7,645.6l-2.5-0.5l-10.9,16.2l8.5-3.3L284.7,645.6L284.7,645.6z M279.7,644.6l-21.6-4.3l-81.4,35.6
	l0.2,0.3c0.2,0.4,0,1-0.5,1.1l-5.8,2.6c2,5.8,4.3,11.4,7,16.8l5.9-2.3c0.5-0.2,1,0.1,1.1,0.5l0.2,0.3l82.8-32.3L279.7,644.6
	L279.7,644.6z M169,675.3l5.4-2.4c0.4-0.2,1,0,1.1,0.5l0.2,0.3l78.2-34.2l-23.4-4.6l-60.3,11.9l0.1,0.3c0.1,0.5-0.2,1-0.7,1l-6,1.2
	C164.6,658.2,166.4,667,169,675.3L169,675.3z M163.2,644.5l5.4-1.1c0.5-0.1,1,0.2,1,0.7l0.1,0.3l54.4-10.8l-54.4-10.8l-0.1,0.3
	c-0.1,0.5-0.6,0.8-1,0.7l-5.4-1.1c-0.2,3.6-0.4,7.2-0.4,10.8C162.8,637.3,163,640.9,163.2,644.5L163.2,644.5z M236.8,633.7l21,4.2
	l9.5-4.2l-9.5-4.2L236.8,633.7L236.8,633.7z M262,638.6l19.2,3.8l1.4-2.1l-12.2-5.4L262,638.6L262,638.6z M283.7,642.9l1.9,0.4
	l0.6-1.4l-1.4-0.6L283.7,642.9L283.7,642.9z M200.7,720.4l51-34.2l13.3-19.8l-79.5,31.1l0.2,0.3c0.2,0.5-0.1,1-0.5,1.1l-5.5,2.2
	c4.2,7.8,9,15.2,14.6,22.1l5-3.4c0.4-0.2,1-0.2,1.2,0.2L200.7,720.4L200.7,720.4z M299.5,657.3l-2.1,1.4l3.8,19.2l3.7-8.3
	L299.5,657.3L299.5,657.3z M295.2,660.1l-18.3,12.2l-32.3,82.8l0.3,0.2c0.5,0.2,0.6,0.7,0.5,1.1l-2.3,5.9c5.4,2.6,11,5,16.8,7
	l2.6-5.8c0.2-0.4,0.7-0.6,1.1-0.5l0.3,0.2l35.6-81.4L295.2,660.1L295.2,660.1z M238.6,760.1l2.2-5.5c0.2-0.5,0.7-0.6,1.1-0.5
	l0.3,0.2l31.1-79.5l-19.8,13.3l-34.2,51l0.3,0.2c0.4,0.2,0.5,0.8,0.2,1.2l-3.4,5C223.4,751.1,230.8,756,238.6,760.1L238.6,760.1z
	 M212.7,742.3l3.1-4.6c0.2-0.4,0.8-0.5,1.2-0.2l0.3,0.2l30.9-46.1l-46.2,30.9l0.2,0.3c0.2,0.4,0.2,1-0.2,1.2l-4.6,3.1
	c2.3,2.7,4.8,5.4,7.4,7.9C207.3,737.5,210,740,212.7,742.3L212.7,742.3z M257.1,682.7l17.8-11.9l3.8-9.7l-9.7,3.8L257.1,682.7
	L257.1,682.7z M278.5,668.4l16.2-10.9l-0.5-2.5l-12.5,4.9L278.5,668.4L278.5,668.4z M296.9,656.1l1.6-1l-0.6-1.4l-1.4,0.6
	L296.9,656.1L296.9,656.1z M293,769.6l11.9-60.3l-4.6-23.4l-34.2,78.3l0.3,0.2c0.4,0.2,0.6,0.7,0.5,1.1l-2.4,5.4
	c8.3,2.6,17,4.3,25.9,5.3l1.2-5.9c0.1-0.5,0.6-0.8,1-0.7L293,769.6L293,769.6z M318.2,655.1l-0.5,2.5l16.2,10.9l-3.3-8.5
	L318.2,655.1L318.2,655.1z M317.2,660.1l-4.3,21.6l35.6,81.4l0.3-0.2c0.4-0.2,1,0,1.1,0.5l2.6,5.8c5.8-2,11.4-4.3,16.8-7l-2.3-5.9
	c-0.2-0.5,0.1-1,0.5-1.1l0.3-0.2l-32.3-82.8L317.2,660.1L317.2,660.1z M347.9,770.8l-2.4-5.4c-0.2-0.4,0-1,0.5-1.1l0.3-0.2
	l-34.2-78.2l-4.6,23.4l11.9,60.3l0.3-0.1c0.5-0.1,1,0.2,1,0.7l1.2,6C330.8,775.2,339.5,773.4,347.9,770.8L347.9,770.8z M317,776.6
	l-1.1-5.4c-0.1-0.5,0.2-1,0.7-1l0.3-0.1l-10.8-54.4L295.3,770l0.3,0.1c0.5,0.1,0.8,0.6,0.7,1l-1.1,5.4c3.6,0.2,7.2,0.4,10.8,0.4
	C309.8,777,313.4,776.8,317,776.6L317,776.6z M306.2,703l4.2-21l-4.2-9.5l-4.2,9.5L306.2,703L306.2,703z M311.2,677.8l3.8-19.2
	l-2.1-1.4l-5.4,12.2L311.2,677.8L311.2,677.8z M315.5,656.1l0.4-1.9l-1.4-0.6l-0.6,1.4L315.5,656.1L315.5,656.1z M393,739.1
	l-34.2-51L339,674.8l31.1,79.5l0.3-0.2c0.5-0.2,1,0.1,1.1,0.5l2.2,5.5c7.8-4.2,15.2-9,22.1-14.6l-3.4-5c-0.2-0.4-0.2-1,0.2-1.2
	L393,739.1L393,739.1z M329.8,640.3l1.4,2.1l19.2-3.8l-8.3-3.7L329.8,640.3L329.8,640.3z M332.7,644.6l12.2,18.3l82.8,32.3l0.2-0.3
	c0.2-0.5,0.7-0.6,1.1-0.5l5.9,2.3c2.6-5.4,5-11,7-16.8l-5.8-2.6c-0.4-0.2-0.6-0.7-0.5-1.1l0.2-0.3l-81.4-35.7L332.7,644.6
	L332.7,644.6z M432.7,701.2l-5.5-2.2c-0.5-0.2-0.6-0.7-0.5-1.1l0.2-0.3l-79.5-31.1l13.3,19.8l51,34.2l0.2-0.3
	c0.2-0.4,0.8-0.5,1.2-0.2l5,3.4C423.6,716.4,428.5,709.1,432.7,701.2L432.7,701.2z M414.9,727.1l-4.6-3.1c-0.4-0.2-0.5-0.8-0.2-1.2
	l0.2-0.3l-46.1-30.9l30.9,46.1l0.3-0.2c0.4-0.2,1-0.2,1.2,0.2l3.1,4.6c2.7-2.3,5.4-4.8,7.9-7.4C410.1,732.5,412.6,729.8,414.9,727.1
	L414.9,727.1z M355.3,682.7L343.4,665l-9.7-3.8l3.8,9.7L355.3,682.7L355.3,682.7z M341,661.3l-10.9-16.2l-2.5,0.5l4.9,12.5
	L341,661.3L341,661.3z M328.6,642.9l-1-1.6l-1.4,0.6l0.6,1.4L328.6,642.9L328.6,642.9z M442.1,646.8l-60.3-11.9l-23.4,4.6l78.2,34.2
	l0.2-0.3c0.2-0.4,0.7-0.6,1.1-0.5l5.4,2.4c2.6-8.3,4.3-17,5.3-25.9l-5.9-1.2c-0.5-0.1-0.8-0.6-0.7-1L442.1,646.8L442.1,646.8z
	 M327.7,621.6l2.5,0.5l10.9-16.2l-8.5,3.3L327.7,621.6L327.7,621.6z M332.7,622.6l21.6,4.3l81.4-35.6l-0.2-0.3c-0.2-0.4,0-1,0.5-1.1
	l5.8-2.6c-2-5.8-4.3-11.4-7-16.8l-5.9,2.3c-0.5,0.2-1-0.1-1.1-0.5l-0.2-0.3L345,604.3L332.7,622.6L332.7,622.6z M443.4,592l-5.4,2.4
	c-0.4,0.2-1,0-1.1-0.5l-0.2-0.3l-78.2,34.2l23.4,4.6l60.3-11.9l-0.1-0.3c-0.1-0.5,0.2-1,0.7-1l6-1.2C447.7,609,446,600.3,443.4,592
	L443.4,592z M449.2,622.8l-5.4,1.1c-0.5,0.1-1-0.2-1-0.7l-0.1-0.3l-54.4,10.8l54.4,10.8l0.1-0.3c0.1-0.5,0.6-0.8,1-0.7l5.4,1
	c0.2-3.6,0.4-7.2,0.4-10.8C449.6,630,449.4,626.4,449.2,622.8L449.2,622.8z M375.6,633.7l-21-4.2l-9.5,4.2l9.5,4.2L375.6,633.7
	L375.6,633.7z M350.4,628.6l-19.2-3.8l-1.4,2.1l12.2,5.4L350.4,628.6L350.4,628.6z M328.6,624.3l-1.9-0.4l-0.6,1.4l1.4,0.6
	L328.6,624.3L328.6,624.3z M411.6,546.8l-51,34.2l-13.3,19.8l79.5-31.1l-0.2-0.3c-0.2-0.5,0.1-1,0.5-1.1l5.5-2.2
	c-4.2-7.8-9-15.2-14.6-22.1l-5,3.4c-0.4,0.2-1,0.2-1.2-0.2L411.6,546.8L411.6,546.8z M312.9,610l2.1-1.4l-3.8-19.2l-3.7,8.3
	L312.9,610L312.9,610z M317.2,607.1l18.3-12.2l32.3-82.8l-0.3-0.2c-0.5-0.2-0.6-0.7-0.5-1.1l2.3-5.9c-5.4-2.6-11-5-16.8-7l-2.6,5.8
	c-0.2,0.4-0.7,0.6-1.1,0.5l-0.3-0.2L313,585.5L317.2,607.1L317.2,607.1z M373.8,507.1l-2.2,5.5c-0.2,0.5-0.7,0.6-1.1,0.5l-0.3-0.2
	l-31.1,79.5l19.8-13.3l34.2-51l-0.3-0.2c-0.4-0.2-0.5-0.8-0.2-1.2l3.4-5C389,516.2,381.6,511.3,373.8,507.1L373.8,507.1z
	 M399.6,524.9l-3.1,4.6c-0.2,0.4-0.8,0.5-1.2,0.2l-0.3-0.2l-30.9,46.1l46.1-30.9l-0.2-0.3c-0.2-0.4-0.2-1,0.2-1.2l4.6-3.1
	c-2.3-2.7-4.8-5.4-7.4-7.9C405,529.7,402.4,527.2,399.6,524.9L399.6,524.9z M355.3,584.5l-17.8,11.9l-3.8,9.7l9.7-3.8L355.3,584.5
	L355.3,584.5z M333.9,598.8l-16.2,10.9l0.5,2.5l12.5-4.9L333.9,598.8L333.9,598.8z M315.5,611.2l-1.6,1l0.6,1.4l1.4-0.6L315.5,611.2
	L315.5,611.2z M319.4,497.7l-11.9,60.2l4.6,23.4l34.2-78.2l-0.3-0.2c-0.4-0.2-0.6-0.7-0.5-1.1l2.4-5.4c-8.3-2.6-17-4.3-25.9-5.3
	l-1.2,6c-0.1,0.5-0.6,0.8-1,0.7L319.4,497.7L319.4,497.7z M264.5,496.4l2.4,5.4c0.2,0.4,0,1-0.5,1.1l-0.3,0.2l34.2,78.2l4.6-23.4
	L293,497.7l-0.3,0.1c-0.5,0.1-1-0.2-1-0.7l-1.2-6C281.6,492.1,272.9,493.8,264.5,496.4L264.5,496.4z M295.3,490.6l1.1,5.4
	c0.1,0.5-0.2,1-0.7,1l-0.3,0.1l10.8,54.4l10.8-54.4l-0.3-0.1c-0.5-0.1-0.8-0.6-0.7-1l1.1-5.4c-3.6-0.2-7.2-0.4-10.8-0.4
	C302.5,490.2,298.9,490.4,295.3,490.6L295.3,490.6z M306.2,564.2l-4.2,21l4.2,9.5l4.2-9.5L306.2,564.2L306.2,564.2z M306.2,614.8
	c-10.4,0-18.9,8.4-18.9,18.9c0,10.4,8.4,18.9,18.9,18.9c10.4,0,18.9-8.4,18.9-18.9S316.6,614.8,306.2,614.8L306.2,614.8z
	 M306.2,627.2c-3.5,0-6.4,2.9-6.4,6.4c0,3.5,2.9,6.4,6.4,6.4s6.4-2.9,6.4-6.4C312.6,630.1,309.8,627.2,306.2,627.2z"/>
<g>
	<g>
		<defs>
			<polygon id="SVGID_1_" points="131,433.5 219.7,453.5 203.5,505.3 146.6,531.5 142.2,614 109.7,715.9 20.4,675.2 32.9,484.1 			
				"/>
		</defs>
		<clipPath id="SVGID_2_">
			<use xlink:href="#SVGID_1_"  overflow="visible"/>
		</clipPath>
		<g transform="matrix(1 0 0 1 0 0)" clip-path="url(#SVGID_2_)">
			
				<image overflow="visible" width="2000" height="1800" xlink:href="5064BD8C1475D4F8.png"  transform="matrix(0.1373 0 0 0.1373 62.4732 464.0808)">
			</image>
			<path fill="none" enable-background="new    " d="z"/>
		</g>
	</g>
</g>
<g>
	<g>
		<defs>
			<polygon id="SVGID_3_" points="401.8,501.7 438.5,501.7 476.3,600.2 564.4,623.9 591.1,501.7 560.8,329.9 443,301.8 406.7,372.9 
				343.8,401 343.8,448.4 369.7,455.1 375.1,486.5 			"/>
		</defs>
		<clipPath id="SVGID_4_">
			<use xlink:href="#SVGID_3_"  overflow="visible"/>
		</clipPath>
		<g transform="matrix(1 0 0 1 0 1.907349e-06)" clip-path="url(#SVGID_4_)">
			
				<image overflow="visible" width="2000" height="1800" xlink:href="5064BD8C1475D4F9.png"  transform="matrix(0.1626 0 0 0.1626 239.1126 319.6606)">
			</image>
			<path fill="none" enable-background="new    " d="z"/>
		</g>
	</g>
</g>
</svg>
